<svg width="30" height="44" viewBox="0 0 30 44" fill="none" xmlns="http://www.w3.org/2000/svg">
<path d="M29.142 41.6392C29.1398 42.7165 28.2285 43.6286 27.1723 43.6286L2.08826 43.5987C1.03209 43.5987 0.183038 42.7309 0.185215 41.6536L0.322797 2.60301C0.324975 1.52575 1.17753 0.657958 2.23371 0.657957L27.3178 0.687859C28.3739 0.687858 29.223 1.55565 29.2208 2.63291L29.142 41.6392Z" fill="#E6DECF"/>
<path d="M2.21263 2.43216L2.0752 41.3213L27.2456 41.3603L27.383 2.47113L2.21263 2.43216Z" fill="#9D6340"/>
<path d="M2.50613 2.73247L2.37061 41.0549L26.9809 41.0931L27.1165 2.77063L2.50613 2.73247Z" fill="#E6DECF"/>
<path d="M2.9873 18.3157L2.9861 18.9121L20.5088 40.5034L21.0099 40.5034L2.9873 18.3157Z" fill="#59C5E3"/>
<path d="M2.9834 20.1365L2.98219 20.7329L19.0349 40.505L19.5065 40.505L2.9834 20.1365Z" fill="#59C5E3"/>
<path d="M2.98047 21.9534L2.97932 22.52L17.5619 40.5028L18.0335 40.5028L2.98047 21.9534Z" fill="#59C5E3"/>
<path d="M2.98999 16.4961L2.98878 17.0925L21.9815 40.503L22.4825 40.503L2.98999 16.4961Z" fill="#59C5E3"/>
<path d="M3.02856 12.8889L3.02742 13.4555L24.9601 40.5043L25.4317 40.5043L3.02856 12.8889Z" fill="#59C5E3"/>
<path d="M2.97534 23.7432L2.97414 24.3396L16.0867 40.5032L16.5583 40.5032L2.97534 23.7432Z" fill="#59C5E3"/>
<path d="M3.0332 11.0686L3.032 11.665L26.4348 40.5031L26.436 39.9067L3.0332 11.0686Z" fill="#59C5E3"/>
<path d="M2.99609 14.677L2.99489 15.2734L23.4576 40.503L23.9587 40.503L2.99609 14.677Z" fill="#59C5E3"/>
<path d="M3.03613 9.25171L3.03493 9.84815L26.4377 38.6862L26.439 38.0898L3.03613 9.25171Z" fill="#59C5E3"/>
<path d="M2.92725 34.6316L2.92604 35.228L7.21861 40.4767L7.69019 40.4767L2.92725 34.6316Z" fill="#59C5E3"/>
<path d="M2.92285 36.45L2.92165 37.0464L5.71471 40.476L6.21574 40.476L2.92285 36.45Z" fill="#59C5E3"/>
<path d="M2.91968 38.2688L2.91853 38.8354L4.24152 40.4756L4.74256 40.4756L2.91968 38.2688Z" fill="#59C5E3"/>
<path d="M2.91602 40.0598L2.91517 40.4769L3.2399 40.4769L2.91602 40.0598Z" fill="#59C5E3"/>
<path d="M2.96802 27.3831L2.96681 27.9795L13.1099 40.5048L13.611 40.5048L2.96802 27.3831Z" fill="#59C5E3"/>
<path d="M2.96387 29.2014L2.96272 29.768L11.6359 40.4742L12.1074 40.504L2.96387 29.2014Z" fill="#59C5E3"/>
<path d="M2.97192 25.562L2.97072 26.1585L14.5838 40.5029L15.0848 40.5029L2.97192 25.562Z" fill="#59C5E3"/>
<path d="M2.95654 32.8086L2.95534 33.405L8.68841 40.4729L9.15998 40.4729L2.95654 32.8086Z" fill="#59C5E3"/>
<path d="M2.96069 30.9902L2.95949 31.5867L10.1626 40.4737L10.6341 40.4737L2.96069 30.9902Z" fill="#59C5E3"/>
<path d="M7.05744 3.28589L6.5564 3.28589L26.4605 27.7997L26.4617 27.2331L7.05744 3.28589Z" fill="#59C5E3"/>
<path d="M20.3505 3.31567L19.8789 3.31567L26.5235 11.487L26.5246 10.9203L20.3505 3.31567Z" fill="#59C5E3"/>
<path d="M14.4551 3.2876L13.9541 3.2876L26.5081 18.7653L26.5093 18.1689L14.4551 3.2876Z" fill="#59C5E3"/>
<path d="M17.4049 3.28613L16.9333 3.28613L26.5178 15.1255L26.519 14.5291L17.4049 3.28613Z" fill="#59C5E3"/>
<path d="M15.93 3.2876L15.429 3.2876L26.5129 16.9462L26.5141 16.3497L15.93 3.2876Z" fill="#59C5E3"/>
<path d="M18.8773 3.31689L18.4058 3.31689L26.5204 13.3073L26.5216 12.7109L18.8773 3.31689Z" fill="#59C5E3"/>
<path d="M26.2732 3.31738L25.802 3.31738L26.5363 4.24094L26.5375 3.6451L26.2732 3.31738Z" fill="#59C5E3"/>
<path d="M21.8541 3.31763L21.353 3.31763L26.5275 9.69958L26.5287 9.10314L21.8541 3.31763Z" fill="#59C5E3"/>
<path d="M24.801 3.31665L24.3293 3.31665L26.5343 6.06029L26.5355 5.46385L24.801 3.31665Z" fill="#59C5E3"/>
<path d="M3.03809 7.43164L3.03688 8.02808L26.4397 36.8661L26.4409 36.2697L3.03809 7.43164Z" fill="#59C5E3"/>
<path d="M23.326 3.31787L22.825 3.31787L26.5294 7.88067L26.5306 7.28422L23.326 3.31787Z" fill="#59C5E3"/>
<path d="M12.954 3.28735L12.4824 3.28735L26.5065 20.5544L26.5077 19.958L12.954 3.28735Z" fill="#59C5E3"/>
<path d="M3.04541 3.82446L3.0442 4.42091L26.447 33.259L26.4482 32.6625L3.04541 3.82446Z" fill="#59C5E3"/>
<path d="M4.08217 3.28638L3.6106 3.28638L26.4548 31.4385L26.456 30.8421L4.08217 3.28638Z" fill="#59C5E3"/>
<path d="M3.04419 5.61255L3.04298 6.20899L26.4457 35.0769L26.4469 34.4804L3.04419 5.61255Z" fill="#59C5E3"/>
<path d="M5.58429 3.28711L5.08325 3.28711L26.4574 29.6201L26.4586 29.0237L5.58429 3.28711Z" fill="#59C5E3"/>
<path d="M8.53114 3.28613L8.05957 3.28613L26.4642 26.0107L26.4655 25.4142L8.53114 3.28613Z" fill="#59C5E3"/>
<path d="M11.4791 3.2876L11.0076 3.2876L26.5016 22.3738L26.5028 21.7774L11.4791 3.2876Z" fill="#59C5E3"/>
<path d="M10.0072 3.28735L9.53564 3.28735L26.4703 24.1927L26.4715 23.5963L10.0072 3.28735Z" fill="#59C5E3"/>
<path d="M9.80075 40.4823L10.3018 40.4823L26.4932 20.7698L26.4944 20.1733L9.80075 40.4823Z" fill="#7CB578"/>
<path d="M12.7748 40.5107L13.2464 40.5107L26.4538 24.3769L26.455 23.8103L12.7748 40.5107Z" fill="#7CB578"/>
<path d="M11.3027 40.4812L11.7742 40.5111L26.4589 22.5879L26.4896 21.9914L11.3027 40.4812Z" fill="#7CB578"/>
<path d="M2.90229 39.8812L2.90109 40.4777L26.5087 11.6992L26.5099 11.1028L2.90229 39.8812Z" fill="#7CB578"/>
<path d="M2.90693 38.0609L2.90572 38.6574L26.5134 9.87889L26.5146 9.28245L2.90693 38.0609Z" fill="#7CB578"/>
<path d="M6.85151 40.4809L7.32312 40.4809L26.4987 17.1301L26.4999 16.5337L6.85151 40.4809Z" fill="#7CB578"/>
<path d="M3.90598 40.4779L4.37759 40.4779L26.5079 13.5185L26.5091 12.9221L3.90598 40.4779Z" fill="#7CB578"/>
<path d="M5.37572 40.4807L5.84733 40.4807L26.5003 15.3107L26.5014 14.7441L5.37572 40.4807Z" fill="#7CB578"/>
<path d="M8.32491 40.4794L8.82598 40.4794L26.4947 18.9477L26.4959 18.3513L8.32491 40.4794Z" fill="#7CB578"/>
<path d="M26.4275 40.1255L26.0725 40.5128L26.4267 40.5128L26.4275 40.1255Z" fill="#7CB578"/>
<path d="M21.6481 40.5122L22.1197 40.5122L26.4335 35.2634L26.4347 34.667L21.6481 40.5122Z" fill="#7CB578"/>
<path d="M23.1225 40.5138L23.5941 40.5138L26.4305 37.0842L26.4317 36.4878L23.1225 40.5138Z" fill="#7CB578"/>
<path d="M24.5973 40.5135L25.0689 40.5135L26.428 38.9031L26.4292 38.3066L24.5973 40.5135Z" fill="#7CB578"/>
<path d="M20.174 40.5132L20.6455 40.5132L26.4367 33.4453L26.4379 32.8489L20.174 40.5132Z" fill="#7CB578"/>
<path d="M17.1974 40.5128L17.6985 40.5128L26.4443 29.8364L26.4455 29.24L17.1974 40.5128Z" fill="#7CB578"/>
<path d="M14.2511 40.5136L14.7227 40.5136L26.4527 26.199L26.4539 25.6025L14.2511 40.5136Z" fill="#7CB578"/>
<path d="M15.7255 40.5155L16.1971 40.5155L26.4497 28.02L26.4509 27.4236L15.7255 40.5155Z" fill="#7CB578"/>
<path d="M18.6716 40.5118L19.1726 40.5118L26.4411 31.6545L26.4423 31.0581L18.6716 40.5118Z" fill="#7CB578"/>
<path d="M3.80145 3.29077L3.3009 3.29077L3.03523 3.61849L3.03402 4.21433L3.80145 3.29077Z" fill="#7CB578"/>
<path d="M12.6718 3.28783L12.2002 3.28783L2.98173 14.501L2.98053 15.0974L12.6718 3.28783Z" fill="#7CB578"/>
<path d="M14.1454 3.28783L13.6738 3.28783L2.97806 16.3202L2.97685 16.9166L14.1454 3.28783Z" fill="#7CB578"/>
<path d="M11.202 3.28979L10.701 3.28979L3.01886 12.6838L3.01765 13.2802L11.202 3.28979Z" fill="#7CB578"/>
<path d="M9.72638 3.29077L9.22535 3.29077L3.02058 10.8656L3.01938 11.4621L9.72638 3.29077Z" fill="#7CB578"/>
<path d="M17.0928 3.28783L16.6212 3.28783L2.97077 19.9286L2.96956 20.5251L17.0928 3.28783Z" fill="#7CB578"/>
<path d="M20.0709 3.31883L19.5698 3.31883L2.96469 23.5681L2.96349 24.1646L20.0709 3.31883Z" fill="#7CB578"/>
<path d="M15.6191 3.28783L15.1475 3.28783L2.97444 18.1095L2.97324 18.7059L15.6191 3.28783Z" fill="#7CB578"/>
<path d="M18.5972 3.31883L18.0962 3.31883L2.96837 21.749L2.96716 22.3454L18.5972 3.31883Z" fill="#7CB578"/>
<path d="M8.22327 3.29077L7.75169 3.29077L3.0242 9.07628L3.02305 9.64291L8.22327 3.29077Z" fill="#7CB578"/>
<path d="M2.95372 28.9958L2.95252 29.5922L24.4919 3.31883L24.0203 3.31883L2.95372 28.9958Z" fill="#7CB578"/>
<path d="M6.74957 3.29077L6.278 3.29077L3.02787 7.25713L3.02667 7.85357L6.74957 3.29077Z" fill="#7CB578"/>
<path d="M2.9455 32.6346L2.9443 33.2311L26.5225 4.45262L26.5237 3.85618L2.9455 32.6346Z" fill="#7CB578"/>
<path d="M2.95005 30.8149L2.94884 31.4114L25.9951 3.31883L25.494 3.31883L2.95005 30.8149Z" fill="#7CB578"/>
<path d="M2.91425 34.4537L2.91311 35.0203L26.5207 6.27172L26.5219 5.67527L2.91425 34.4537Z" fill="#7CB578"/>
<path d="M2.91065 36.2401L2.90945 36.8365L26.5171 8.05806L26.5182 7.49143L2.91065 36.2401Z" fill="#7CB578"/>
<path d="M2.9574 27.1766L2.9562 27.7731L23.0183 3.31883L22.5467 3.31883L2.9574 27.1766Z" fill="#7CB578"/>
<path d="M5.27588 3.29077L4.80431 3.29077L3.03155 5.43797L3.03034 6.03442L5.27588 3.29077Z" fill="#7CB578"/>
<path d="M2.96102 25.3873L2.95987 25.9539L21.5446 3.31883L21.073 3.31883L2.96102 25.3873Z" fill="#7CB578"/>
</svg>
