<svg width="13" height="13" viewBox="0 0 13 13" fill="none" xmlns="http://www.w3.org/2000/svg">
<g clip-path="url(#clip0_938_3335)">
<path d="M10.8974 6.91155V7.16765C10.8974 8.60167 8.48921 9.76406 5.51879 9.76406C3.87915 9.76406 2.41183 9.40949 1.42528 8.85094C1.75792 10.1428 4.01858 11.2121 6.76 11.2121C9.73042 11.2121 12.1386 9.95686 12.1386 8.52285C12.1386 7.89231 11.6719 7.33667 10.8974 6.91155Z" fill="#FCC62D"/>
<path d="M6.76057 11.2121C3.79014 11.2121 1.38199 9.95684 1.38199 8.52283V10.2705C1.38199 11.7045 3.79014 12.8671 6.76057 12.8671C9.73099 12.8671 12.1391 11.7045 12.1391 10.2705V8.52283C12.1391 9.95684 9.73099 11.2121 6.76057 11.2121Z" fill="#E4AF18"/>
<path d="M2.00242 11.4914C2.12447 11.6029 2.26287 11.7097 2.41616 11.8111V10.0959C2.26287 9.99041 2.12447 9.87973 2.00242 9.7643V11.4914Z" fill="#CE9912"/>
<path d="M11.1049 10.0959V11.8111C11.2581 11.7099 11.3965 11.6029 11.5186 11.4914V9.7643C11.3967 9.87973 11.2584 9.99041 11.1049 10.0959Z" fill="#CE9912"/>
<path d="M2.83005 12.0524C2.96079 12.1201 3.09898 12.184 3.24378 12.2446V10.5497C3.09898 10.486 2.96079 10.4188 2.83005 10.348V12.0524Z" fill="#CE9912"/>
<path d="M10.2772 12.2446C10.422 12.1842 10.5602 12.1201 10.691 12.0524V10.348C10.5602 10.4188 10.422 10.4862 10.2772 10.5497V12.2446Z" fill="#CE9912"/>
<path d="M3.65767 12.4012C3.79131 12.4469 3.92929 12.4895 4.07141 12.5292V10.8507C3.92929 10.8085 3.79131 10.7632 3.65767 10.715V12.4012Z" fill="#CE9912"/>
<path d="M9.4496 12.5292C9.59172 12.4895 9.7297 12.4469 9.86334 12.4012V10.715C9.7297 10.7632 9.59172 10.8085 9.4496 10.8507V12.5292Z" fill="#CE9912"/>
<path d="M4.69184 12.6777C4.82693 12.705 4.96512 12.7294 5.10558 12.7511V11.0871C4.96512 11.0637 4.82693 11.0376 4.69184 11.0087V12.6777Z" fill="#CE9912"/>
<path d="M8.41543 12.7513C8.5559 12.7294 8.69409 12.705 8.82917 12.6779V11.0087C8.69409 11.0376 8.5559 11.0637 8.41543 11.0873V12.7513Z" fill="#CE9912"/>
<path d="M5.93328 12.8468C6.0694 12.8569 6.20759 12.864 6.34702 12.8689V11.2134C6.20759 11.208 6.0694 11.2005 5.93328 11.1896V12.8468Z" fill="#CE9912"/>
<path d="M7.17399 12.8691C7.31342 12.864 7.45161 12.8571 7.58773 12.847V11.1896C7.45161 11.2005 7.31342 11.208 7.17399 11.2136V12.8691Z" fill="#CE9912"/>
<path d="M5.5192 8.10818C2.54878 8.10818 0.140625 6.8529 0.140625 5.41889V7.16652C0.140625 8.60053 2.54878 9.76313 5.5192 9.76313C8.48963 9.76313 10.8978 8.60053 10.8978 7.16652V5.41889C10.8978 6.8529 8.48963 8.10818 5.5192 8.10818Z" fill="#E4AF18"/>
<path d="M0.760979 8.38727C0.883032 8.49877 1.02143 8.60552 1.17472 8.70688V6.99174C1.02143 6.88623 0.883032 6.77556 0.760979 6.66033V8.38727Z" fill="#CE9912"/>
<path d="M9.86341 6.99194V8.70709C10.0167 8.60593 10.1551 8.49898 10.2772 8.38748V6.66033C10.1553 6.77577 10.0169 6.88644 9.86341 6.99194Z" fill="#CE9912"/>
<path d="M1.58861 8.94772C1.71935 9.01537 1.85754 9.07929 2.00234 9.1399V7.44503C1.85754 7.38131 1.71935 7.31408 1.58861 7.24333V8.94772Z" fill="#CE9912"/>
<path d="M9.03579 9.1399C9.18059 9.0795 9.31878 9.01557 9.44952 8.94772V7.24333C9.31878 7.31408 9.18059 7.38152 9.03579 7.44503V9.1399Z" fill="#CE9912"/>
<path d="M2.41623 9.29646C2.54987 9.34218 2.68785 9.38479 2.82997 9.42451V7.74598C2.68785 7.70378 2.54987 7.65847 2.41623 7.61027V9.29646Z" fill="#CE9912"/>
<path d="M8.20889 9.42451C8.35101 9.38479 8.48899 9.34218 8.62263 9.29646V7.61027C8.48899 7.65847 8.35101 7.70378 8.20889 7.74598V9.42451Z" fill="#CE9912"/>
<path d="M3.4504 9.57372C3.58549 9.60103 3.72367 9.62544 3.86414 9.64716V7.98311C3.72367 7.95973 3.58549 7.93366 3.4504 7.9047V9.57372Z" fill="#CE9912"/>
<path d="M7.17399 9.64736C7.31445 9.62543 7.45264 9.60102 7.58773 9.57393V7.9047C7.45264 7.93366 7.31445 7.95973 7.17399 7.98331V9.64736Z" fill="#CE9912"/>
<path d="M4.69184 9.74283C4.82796 9.75297 4.96615 9.76 5.10558 9.76497V8.1094C4.96615 8.10402 4.82796 8.09657 4.69184 8.08561V9.74283Z" fill="#CE9912"/>
<path d="M5.93328 9.76444C6.07271 9.75927 6.2109 9.75245 6.34702 9.74231V8.08488C6.2109 8.09584 6.07271 8.10329 5.93328 8.10887V9.76444Z" fill="#CE9912"/>
<path d="M10.7572 7.75822C10.2034 8.90758 8.06976 9.76443 5.5199 9.76443C4.56748 9.76443 3.67339 9.64445 2.89743 9.43489C3.64795 9.94441 4.9837 10.378 6.76111 10.378C9.59148 10.378 11.3122 9.27933 11.3122 8.52322C11.3122 8.27084 11.118 8.00315 10.7572 7.75822Z" fill="#FFD949"/>
<path d="M6.55355 7.69573C3.58312 7.69573 1.17497 6.53313 1.17497 5.09912V3.9299C0.525193 4.33722 0.140625 4.84798 0.140625 5.42018C0.140625 6.85419 2.54878 8.10947 5.5192 8.10947C6.94949 8.10947 8.24821 7.81799 9.2116 7.35605C8.42736 7.57182 7.52066 7.69573 6.55355 7.69573Z" fill="#FFD949"/>
<path d="M6.55337 6.03985C3.58295 6.03985 1.17479 4.78457 1.17479 3.35056V5.09818C1.17479 6.5322 3.58295 7.6948 6.55337 7.6948C9.5238 7.6948 11.932 6.5322 11.932 5.09818V3.35056C11.932 4.78457 9.5238 6.03985 6.55337 6.03985Z" fill="#E4AF18"/>
<path d="M1.79588 6.31893C1.91793 6.43044 2.05633 6.53718 2.20962 6.63855V4.9234C2.05633 4.8179 1.91793 4.70722 1.79588 4.592V6.31893Z" fill="#CE9912"/>
<path d="M10.8976 4.92288V6.63802C11.0509 6.53686 11.1893 6.42991 11.3113 6.31841V4.59127C11.1895 4.7067 11.0511 4.81737 10.8976 4.92288Z" fill="#CE9912"/>
<path d="M2.62351 6.87939C2.75425 6.94703 2.89244 7.01096 3.03724 7.07157V5.3767C2.89244 5.31298 2.75425 5.24575 2.62351 5.175V6.87939Z" fill="#CE9912"/>
<path d="M10.07 7.07084C10.2148 7.01043 10.353 6.94651 10.4837 6.87866V5.17427C10.353 5.24502 10.2148 5.31245 10.07 5.37596V7.07084Z" fill="#CE9912"/>
<path d="M3.4504 7.22812C3.58404 7.27384 3.72202 7.31646 3.86414 7.35617V5.67764C3.72202 5.63544 3.58404 5.59014 3.4504 5.54194V7.22812Z" fill="#CE9912"/>
<path d="M9.24306 7.35617C9.38518 7.31646 9.52316 7.27384 9.65679 7.22812V5.54194C9.52316 5.59014 9.38518 5.63544 9.24306 5.67764V7.35617Z" fill="#CE9912"/>
<path d="M4.48457 7.50465C4.61965 7.53196 4.75784 7.55637 4.89831 7.57809V5.91404C4.75784 5.89066 4.61965 5.8646 4.48457 5.83564V7.50465Z" fill="#CE9912"/>
<path d="M8.20889 7.57829C8.34935 7.55637 8.48754 7.53196 8.62263 7.50486V5.83564C8.48754 5.8646 8.34935 5.89066 8.20889 5.91425V7.57829Z" fill="#CE9912"/>
<path d="M5.72601 7.67376C5.86213 7.6839 6.00032 7.69093 6.13975 7.6959V6.04033C6.00032 6.03495 5.86213 6.02751 5.72601 6.01654V7.67376Z" fill="#CE9912"/>
<path d="M6.96745 7.69611C7.10688 7.69093 7.24507 7.68411 7.38119 7.67397V6.01654C7.24507 6.02751 7.10688 6.03495 6.96745 6.04054V7.69611Z" fill="#CE9912"/>
<path d="M11.932 3.35156C11.932 4.78557 9.5238 6.04085 6.55337 6.04085C3.58295 6.04085 1.17479 4.78557 1.17479 3.35156C1.17479 1.91755 3.58295 0.869141 6.55337 0.869141C9.5238 0.869141 11.932 1.91755 11.932 3.35156Z" fill="#FCC62D"/>
<path d="M6.55353 5.20683C3.72315 5.20683 2.00242 4.10835 2.00242 3.35204C2.00242 2.59594 3.72315 1.49023 6.55353 1.49023C9.3839 1.49023 11.1046 2.59594 11.1046 3.35204C11.1046 4.10835 9.3839 5.20683 6.55353 5.20683Z" fill="#FFD949"/>
<path d="M7.95688 3.63245C8.12651 3.59645 8.22602 3.49178 8.1894 3.37241L8.1501 3.24498C8.12134 3.15127 8.00943 3.07307 7.87227 3.03418C7.68568 2.63555 7.20988 2.49115 6.50322 2.49115C6.46971 2.49115 6.43702 2.49198 6.40475 2.49322C6.16354 2.50315 5.92295 2.47998 5.73532 2.4113C5.65878 2.38338 5.59651 2.35421 5.55535 2.3238C5.53673 2.31014 5.49163 2.31883 5.49163 2.33621C5.49163 2.36641 5.49391 2.4022 5.50053 2.44192C5.52618 2.59645 5.49556 2.57328 5.34289 2.7274C5.25435 2.81718 5.18381 2.92061 5.13271 3.0348C4.99639 3.0739 4.88509 3.15189 4.85634 3.24519L4.81703 3.37262C4.78042 3.49198 4.87992 3.59666 5.04955 3.63265C5.09796 3.93799 5.30545 4.20609 5.75787 4.3538L5.73305 4.56832C5.72643 4.62562 5.67699 4.67858 5.605 4.70465L4.6925 5.03398C5.22539 5.14569 5.83276 5.21313 6.50322 5.21313C7.16437 5.21313 7.76408 5.14755 8.2916 5.03895L7.39896 4.70527C7.32842 4.67879 7.28001 4.62624 7.2736 4.56997L7.24856 4.3538C7.70099 4.20609 7.90847 3.93778 7.95688 3.63245Z" fill="#F0C41B"/>
</g>
<defs>
<clipPath id="clip0_938_3335">
<rect width="12.0733" height="12.0733" fill="white" transform="translate(0.140625 0.870117)"/>
</clipPath>
</defs>
</svg>
