<svg width="18" height="18" viewBox="0 0 18 18" fill="none" xmlns="http://www.w3.org/2000/svg">
<circle cx="9" cy="9" r="9" fill="#FFDE50"/>
<circle cx="8.99951" cy="9.00049" r="6.75" fill="#FAA300"/>
<path d="M5.23372 5.96939H12.8334C13.2392 5.96939 13.5681 5.64047 13.5681 5.23469C13.5681 4.82892 13.2392 4.5 12.8334 4.5H5.23372C4.82795 4.5 4.49902 4.82892 4.49902 5.23469C4.49902 5.64047 4.82795 5.96939 5.23372 5.96939Z" fill="white"/>
<path d="M12.8332 7.07129H5.23347C4.8277 7.07129 4.49878 7.40021 4.49878 7.80598C4.49878 8.21176 4.8277 8.54068 5.23347 8.54068H8.29862V13.862C8.29862 14.2677 8.62754 14.5967 9.03331 14.5967C9.43908 14.5967 9.768 14.2677 9.768 13.862V8.54068H12.8332C13.239 8.54068 13.5679 8.21176 13.5679 7.80598C13.5679 7.40021 13.239 7.07129 12.8332 7.07129Z" fill="white"/>
</svg>
